<?xml version="1.0" encoding="UTF-8"?>
<!DOCTYPE svg PUBLIC "-//W3C//DTD SVG 1.1//EN" "http://www.w3.org/Graphics/SVG/1.1/DTD/svg11.dtd">
<svg version="1.1" xmlns="http://www.w3.org/2000/svg" xmlns:xlink="http://www.w3.org/1999/xlink" x="0" y="0" width="670" height="599" viewBox="0, 0, 670, 599">
  <g id="Layer_1">
    <g>
      <path d="M488.38,245.499 C488.38,112.766 380.379,4.992 247.192,4.992 C114.005,4.992 6.004,112.766 6.004,245.499 C6.004,378.232 114.005,486.007 247.192,486.007 C380.379,486.007 488.38,378.459 488.38,245.499 z M34.139,245.499 C34.139,115.035 129.661,9.076 247.192,9.076 C364.723,9.076 460.245,114.808 460.245,245.499 C460.245,376.19 364.95,481.923 247.192,481.923 C129.434,481.923 34.139,375.963 34.139,245.499 z" fill="#000000"/>
      <path d="M645.164,502.797 C627.693,509.604 627.92,526.848 623.155,538.873 C618.391,550.898 598.878,566.781 554.86,566.781 C510.843,566.781 467.506,550.218 419.858,532.52 C372.211,514.822 324.563,486.234 244.242,486.234 C163.922,486.234 131.476,529.344 131.476,529.344 C131.476,529.344 131.476,529.344 132.157,530.024 C132.838,530.705 134.653,528.209 140.552,524.352 C146.451,520.495 169.141,508.696 200.452,507.789 C231.763,506.881 266.478,517.999 342.034,552.94 C417.589,587.882 469.094,594.235 492.464,594.235 C515.834,594.235 561.213,589.924 597.062,570.865 C632.912,551.806 653.332,530.024 660.82,515.503 C668.307,500.528 662.635,495.763 645.164,502.797 z" fill="#000000"/>
    </g>
  </g>
</svg>
